<svg xmlns="http://www.w3.org/2000/svg" xmlns:xlink="http://www.w3.org/1999/xlink" zoomAndPan="magnify" viewBox="-0.156 348.219 601.552 130.328" preserveAspectRatio="xMidYMid meet" version="1.0"><defs><g/></defs><g fill="#ffffff" fill-opacity="1"><g transform="translate(0.00000622222, 448.499997)"><g><path d="M 78 0 L 59.59375 0 L 45.3125 -33.84375 L 27.515625 -33.84375 L 27.515625 0 L 9.84375 0 L 9.84375 -87.84375 L 46.90625 -87.84375 C 53.90625 -87.84375 59.632812 -86.726562 64.09375 -84.5 C 68.550781 -82.269531 71.832031 -79.179688 73.9375 -75.234375 C 76.039062 -71.285156 77.09375 -66.738281 77.09375 -61.59375 C 77.09375 -56.976562 76.375 -53.082031 74.9375 -49.90625 C 73.5 -46.726562 71.613281 -44.082031 69.28125 -41.96875 C 66.957031 -39.863281 64.414062 -38.144531 61.65625 -36.8125 Z M 43.734375 -47.5 C 48.472656 -47.5 52.226562 -48.773438 55 -51.328125 C 57.78125 -53.878906 59.171875 -57.160156 59.171875 -61.171875 C 59.171875 -65.222656 57.832031 -68.421875 55.15625 -70.765625 C 52.488281 -73.117188 49.109375 -74.296875 45.015625 -74.296875 L 27.515625 -74.296875 L 27.515625 -47.5 Z M 43.734375 -47.5 "/></g></g></g><g fill="#ffffff" fill-opacity="1"><g transform="translate(73.203567, 448.499997)"><g><path d="M 34.5625 1.21875 C 28.40625 1.21875 23.046875 -0.0976562 18.484375 -2.734375 C 13.929688 -5.367188 10.410156 -9.09375 7.921875 -13.90625 C 5.429688 -18.726562 4.1875 -24.441406 4.1875 -31.046875 C 4.1875 -37.648438 5.429688 -43.421875 7.921875 -48.359375 C 10.410156 -53.296875 13.929688 -57.140625 18.484375 -59.890625 C 23.046875 -62.648438 28.425781 -64.03125 34.625 -64.03125 C 40.820312 -64.03125 46.1875 -62.679688 50.71875 -59.984375 C 55.257812 -57.296875 58.765625 -53.476562 61.234375 -48.53125 C 63.703125 -43.59375 64.9375 -37.765625 64.9375 -31.046875 C 64.9375 -24.722656 63.734375 -19.140625 61.328125 -14.296875 C 58.921875 -9.460938 55.457031 -5.664062 50.9375 -2.90625 C 46.425781 -0.15625 40.96875 1.21875 34.5625 1.21875 Z M 34.625 -11.96875 C 37.75 -11.96875 40.257812 -12.878906 42.15625 -14.703125 C 44.0625 -16.523438 45.445312 -18.921875 46.3125 -21.890625 C 47.1875 -24.867188 47.625 -28.125 47.625 -31.65625 C 47.625 -34.96875 47.226562 -38.101562 46.4375 -41.0625 C 45.65625 -44.019531 44.3125 -46.410156 42.40625 -48.234375 C 40.5 -50.054688 37.90625 -50.96875 34.625 -50.96875 C 31.507812 -50.96875 28.988281 -50.109375 27.0625 -48.390625 C 25.132812 -46.671875 23.722656 -44.34375 22.828125 -41.40625 C 21.941406 -38.46875 21.5 -35.21875 21.5 -31.65625 C 21.5 -28.375 21.90625 -25.222656 22.71875 -22.203125 C 23.53125 -19.179688 24.882812 -16.71875 26.78125 -14.8125 C 28.6875 -12.914062 31.300781 -11.96875 34.625 -11.96875 Z M 34.625 -11.96875 "/></g></g></g><g fill="#ffffff" fill-opacity="1"><g transform="translate(131.280361, 448.499997)"><g><path d="M 45.859375 -50.484375 L 31.890625 -50.484375 L 32.015625 -17.015625 C 32.015625 -15.472656 32.207031 -14.328125 32.59375 -13.578125 C 32.976562 -12.828125 33.582031 -12.335938 34.40625 -12.109375 C 35.238281 -11.890625 36.304688 -11.78125 37.609375 -11.78125 L 46.046875 -11.78125 L 46.046875 -0.84375 C 45.234375 -0.476562 43.96875 -0.132812 42.25 0.1875 C 40.53125 0.507812 38.128906 0.671875 35.046875 0.671875 C 29.546875 0.671875 25.285156 -0.0351562 22.265625 -1.453125 C 19.242188 -2.867188 17.144531 -4.851562 15.96875 -7.40625 C 14.800781 -9.957031 14.21875 -12.914062 14.21875 -16.28125 L 14.21875 -50.484375 L 4.015625 -50.484375 L 4.015625 -62.8125 L 14.828125 -62.8125 L 19.25 -81.765625 L 31.890625 -81.765625 L 31.890625 -62.875 L 45.859375 -62.875 Z M 45.859375 -50.484375 "/></g></g></g><g fill="#ffffff" fill-opacity="1"><g transform="translate(173.319132, 448.499997)"><g><path d="M 25.8125 1.21875 C 21.800781 1.21875 18.195312 0.46875 15 -1.03125 C 11.800781 -2.53125 9.269531 -4.707031 7.40625 -7.5625 C 5.539062 -10.414062 4.609375 -13.890625 4.609375 -17.984375 C 4.609375 -24.867188 7.179688 -30.101562 12.328125 -33.6875 C 17.472656 -37.269531 25.59375 -39.125 36.6875 -39.25 L 44.53125 -39.359375 L 44.53125 -43.125 C 44.53125 -46.007812 43.6875 -48.226562 42 -49.78125 C 40.320312 -51.34375 37.722656 -52.101562 34.203125 -52.0625 C 31.609375 -52.019531 29.144531 -51.410156 26.8125 -50.234375 C 24.488281 -49.066406 22.898438 -47.023438 22.046875 -44.109375 L 7.296875 -44.109375 C 7.535156 -48.640625 8.847656 -52.375 11.234375 -55.3125 C 13.628906 -58.25 16.878906 -60.4375 20.984375 -61.875 C 25.097656 -63.3125 29.765625 -64.03125 34.984375 -64.03125 C 41.429688 -64.03125 46.597656 -63.226562 50.484375 -61.625 C 54.367188 -60.03125 57.179688 -57.742188 58.921875 -54.765625 C 60.671875 -51.785156 61.546875 -48.253906 61.546875 -44.171875 L 61.546875 0 L 46.71875 0 L 45.265625 -10.8125 C 43.109375 -6.28125 40.421875 -3.140625 37.203125 -1.390625 C 33.984375 0.347656 30.1875 1.21875 25.8125 1.21875 Z M 31.765625 -10.453125 C 33.390625 -10.453125 34.960938 -10.742188 36.484375 -11.328125 C 38.003906 -11.910156 39.359375 -12.695312 40.546875 -13.6875 C 41.742188 -14.6875 42.707031 -15.8125 43.4375 -17.0625 C 44.164062 -18.320312 44.53125 -19.617188 44.53125 -20.953125 L 44.53125 -30.25 L 38.15625 -30.125 C 35.195312 -30.09375 32.441406 -29.738281 29.890625 -29.0625 C 27.335938 -28.394531 25.28125 -27.3125 23.71875 -25.8125 C 22.164062 -24.320312 21.390625 -22.300781 21.390625 -19.75 C 21.390625 -16.832031 22.398438 -14.550781 24.421875 -12.90625 C 26.441406 -11.269531 28.890625 -10.453125 31.765625 -10.453125 Z M 31.765625 -10.453125 "/></g></g></g><g fill="#ffffff" fill-opacity="1"><g transform="translate(233.886675, 448.499997)"><g><path d="M 7.59375 0 L 7.59375 -62.8125 L 24.671875 -62.8125 L 24.671875 -47.9375 C 25.679688 -51.132812 27.109375 -53.9375 28.953125 -56.34375 C 30.796875 -58.75 33.03125 -60.628906 35.65625 -61.984375 C 38.289062 -63.347656 41.269531 -64.03125 44.59375 -64.03125 C 45.15625 -64.03125 45.6875 -64 46.1875 -63.9375 C 46.695312 -63.875 47.078125 -63.785156 47.328125 -63.671875 L 47.328125 -46.78125 C 46.960938 -46.9375 46.523438 -47.035156 46.015625 -47.078125 C 45.515625 -47.117188 45.0625 -47.160156 44.65625 -47.203125 C 41.164062 -47.484375 38.1875 -47.378906 35.71875 -46.890625 C 33.25 -46.410156 31.242188 -45.582031 29.703125 -44.40625 C 28.160156 -43.226562 27.046875 -41.789062 26.359375 -40.09375 C 25.671875 -38.394531 25.328125 -36.492188 25.328125 -34.390625 L 25.328125 0 Z M 7.59375 0 "/></g></g></g><g fill="#ffffff" fill-opacity="1"><g transform="translate(276.775948, 448.499997)"><g><path d="M 17.375 20.046875 C 13.082031 20.046875 10.054688 19.691406 8.296875 18.984375 C 6.535156 18.273438 5.65625 17.921875 5.65625 17.921875 L 5.65625 6.625 L 11.84375 6.859375 C 14.5625 7.023438 16.75 6.894531 18.40625 6.46875 C 20.0625 6.039062 21.328125 5.484375 22.203125 4.796875 C 23.078125 4.109375 23.695312 3.390625 24.0625 2.640625 C 24.425781 1.890625 24.6875 1.289062 24.84375 0.84375 L 26 -2.609375 L 1.578125 -62.8125 L 19.140625 -62.8125 L 34.203125 -21.875 L 49.453125 -62.8125 L 66.765625 -62.8125 L 41.3125 0.359375 C 39.125 5.710938 36.8125 9.804688 34.375 12.640625 C 31.945312 15.472656 29.328125 17.414062 26.515625 18.46875 C 23.703125 19.519531 20.65625 20.046875 17.375 20.046875 Z M 17.375 20.046875 "/></g></g></g><g fill="#ffffff" fill-opacity="1"><g transform="translate(335.156491, 448.499997)"><g/></g></g><g fill="#ffffff" fill-opacity="1"><g transform="translate(351.801739, 448.499997)"><g><path d="M 45.625 -89.0625 C 52.226562 -89.0625 58.109375 -87.734375 63.265625 -85.078125 C 68.429688 -82.421875 72.601562 -78.804688 75.78125 -74.234375 C 78.957031 -69.660156 80.832031 -64.5 81.40625 -58.75 L 62.8125 -58.75 C 62.25 -61.78125 61.21875 -64.476562 59.71875 -66.84375 C 58.21875 -69.21875 56.25 -71.082031 53.8125 -72.4375 C 51.382812 -73.800781 48.472656 -74.484375 45.078125 -74.484375 C 40.984375 -74.484375 37.457031 -73.488281 34.5 -71.5 C 31.550781 -69.519531 29.285156 -66.320312 27.703125 -61.90625 C 26.117188 -57.488281 25.328125 -51.65625 25.328125 -44.40625 C 25.328125 -33.46875 27.078125 -25.554688 30.578125 -20.671875 C 34.085938 -15.796875 38.921875 -13.359375 45.078125 -13.359375 C 48.472656 -13.359375 51.382812 -14.140625 53.8125 -15.703125 C 56.25 -17.265625 58.21875 -19.332031 59.71875 -21.90625 C 61.21875 -24.476562 62.25 -27.300781 62.8125 -30.375 L 81.40625 -30.375 C 80.875 -26.207031 79.859375 -22.226562 78.359375 -18.4375 C 76.867188 -14.644531 74.742188 -11.269531 71.984375 -8.3125 C 69.234375 -5.363281 65.691406 -3.035156 61.359375 -1.328125 C 57.023438 0.367188 51.78125 1.21875 45.625 1.21875 C 37.445312 1.21875 30.378906 -0.679688 24.421875 -4.484375 C 18.460938 -8.296875 13.875 -13.644531 10.65625 -20.53125 C 7.4375 -27.414062 5.828125 -35.457031 5.828125 -44.65625 C 5.828125 -53.882812 7.425781 -61.8125 10.625 -68.4375 C 13.832031 -75.0625 18.410156 -80.15625 24.359375 -83.71875 C 30.316406 -87.28125 37.40625 -89.0625 45.625 -89.0625 Z M 45.625 -89.0625 "/></g></g></g><g fill="#ffffff" fill-opacity="1"><g transform="translate(429.926041, 448.499997)"><g><path d="M 27.640625 1.09375 C 23.023438 1.09375 19.359375 0.546875 16.640625 -0.546875 C 13.929688 -1.640625 11.925781 -3.085938 10.625 -4.890625 C 9.332031 -6.691406 8.503906 -8.695312 8.140625 -10.90625 C 7.773438 -13.113281 7.59375 -15.351562 7.59375 -17.625 L 7.59375 -90.28125 L 24.96875 -90.28125 L 24.96875 -19.796875 C 24.96875 -17.492188 25.460938 -15.625 26.453125 -14.1875 C 27.441406 -12.75 29.316406 -11.867188 32.078125 -11.546875 L 35.046875 -11.359375 L 35.046875 -0.421875 C 33.835938 -0.015625 32.601562 0.335938 31.34375 0.640625 C 30.09375 0.941406 28.859375 1.09375 27.640625 1.09375 Z M 27.640625 1.09375 "/></g></g></g><g fill="#ffffff" fill-opacity="1"><g transform="translate(459.328795, 448.499997)"><g><path d="M 30.734375 1.21875 C 27.816406 1.21875 24.953125 0.773438 22.140625 -0.109375 C 19.328125 -1.003906 16.765625 -2.320312 14.453125 -4.0625 C 12.148438 -5.8125 10.296875 -7.960938 8.890625 -10.515625 C 7.492188 -13.066406 6.796875 -16.019531 6.796875 -19.375 L 6.796875 -62.8125 L 24.546875 -62.8125 L 24.546875 -21.625 C 24.546875 -18.707031 25.492188 -16.316406 27.390625 -14.453125 C 29.296875 -12.585938 32.09375 -11.65625 35.78125 -11.65625 C 39.257812 -11.65625 42.019531 -12.554688 44.0625 -14.359375 C 46.113281 -16.171875 47.140625 -18.695312 47.140625 -21.9375 L 47.140625 -62.8125 L 64.703125 -62.8125 L 64.703125 0 L 51.328125 0 L 49.265625 -12.453125 C 48.535156 -8.765625 47.164062 -5.9375 45.15625 -3.96875 C 43.15625 -2.007812 40.867188 -0.65625 38.296875 0.09375 C 35.722656 0.84375 33.203125 1.21875 30.734375 1.21875 Z M 30.734375 1.21875 "/></g></g></g><g fill="#ffffff" fill-opacity="1"><g transform="translate(522.083339, 448.499997)"><g><path d="M 42.578125 1.21875 C 39.460938 1.21875 36.769531 0.8125 34.5 0 C 32.238281 -0.8125 30.316406 -1.894531 28.734375 -3.25 C 27.148438 -4.601562 25.851562 -6.109375 24.84375 -7.765625 C 23.832031 -9.429688 23.046875 -11.132812 22.484375 -12.875 L 20.46875 0 L 7.59375 0 L 7.59375 -90.28125 L 25.390625 -90.28125 L 25.390625 -54.3125 C 26.160156 -55.644531 27.148438 -56.898438 28.359375 -58.078125 C 29.578125 -59.253906 30.992188 -60.285156 32.609375 -61.171875 C 34.234375 -62.066406 36.03125 -62.765625 38 -63.265625 C 39.96875 -63.773438 42.0625 -64.03125 44.28125 -64.03125 C 52.101562 -64.03125 58.226562 -61.210938 62.65625 -55.578125 C 67.09375 -49.953125 69.3125 -42.015625 69.3125 -31.765625 C 69.3125 -25.128906 68.296875 -19.335938 66.265625 -14.390625 C 64.242188 -9.453125 61.25 -5.613281 57.28125 -2.875 C 53.3125 -0.144531 48.410156 1.21875 42.578125 1.21875 Z M 38.703125 -11.546875 C 42.503906 -11.546875 45.671875 -13.113281 48.203125 -16.25 C 50.734375 -19.382812 52 -24.640625 52 -32.015625 C 52 -38.535156 50.789062 -43.351562 48.375 -46.46875 C 45.96875 -49.59375 42.703125 -51.15625 38.578125 -51.15625 C 35.617188 -51.15625 33.164062 -50.453125 31.21875 -49.046875 C 29.28125 -47.648438 27.832031 -45.535156 26.875 -42.703125 C 25.925781 -39.867188 25.429688 -36.304688 25.390625 -32.015625 C 25.390625 -24.597656 26.492188 -19.332031 28.703125 -16.21875 C 30.910156 -13.101562 34.242188 -11.546875 38.703125 -11.546875 Z M 38.703125 -11.546875 "/></g></g></g></svg>